<?xml version="1.0" encoding="utf-8"?>
<!-- Generator: Adobe Illustrator 21.0.2, SVG Export Plug-In . SVG Version: 6.00 Build 0)  -->
<svg version="1.1" id="Calque_1" xmlns="http://www.w3.org/2000/svg" xmlns:xlink="http://www.w3.org/1999/xlink" x="0px" y="0px"
	 viewBox="0 0 678 229.1" style="enable-background:new 0 0 678 229.1;" xml:space="preserve">
<style type="text/css">
	.st0{fill:#026938;}
	.st1{fill:#EED39D;}
	.st2{fill:#FFFFFF;}
</style>
<path class="st0" d="M678,0H0v177.9h241.7c6.7,7.8,16.3,13.1,27.2,14.1c13.5,21.1,38.6,35.3,67.4,35.3c28.7,0,53.7-14.2,67.3-35.2
	c0.5,0,1.1,0.1,1.6,0.1c12.4,0,23.5-5.6,31-14.3H678V0z"/>
<g>
	<g>
		<path class="st1" d="M410.6,44.3c0,3.5-0.1,5.9-0.3,8.7c0.7-0.1,1.5-0.2,6.6-0.2c2.9,0,4.4,0.1,5.5,0.2c-0.1-0.4-0.1-0.7-0.1-1.3
			c0-0.7,0.1-1,0.1-1.4c-2.4,0.3-4.8,0.4-7.2,0.4c-0.1-1.3-0.1-2.6-0.1-3.9c0-1.4,0-2.7,0-4c2.4,0,4.7,0.1,7.1,0.3
			c-0.1-0.7-0.2-0.9-0.2-1.3c0-0.4,0-0.7,0.2-1.4c-2.4,0.1-4.4,0.2-7.1,0.3c0-2.3,0-4.6,0.2-6.8c0.9,0,4.7,0.2,7.1,0.4
			c-0.1-0.5-0.1-0.7-0.1-1.4c0-0.6,0.1-0.9,0.1-1.3c-0.9,0.1-3.5,0.2-6.6,0.2c-1.8,0-3.7-0.1-5.6-0.2c0.2,2.7,0.3,5.2,0.3,8.7v4
			H410.6z M401.3,37.2c0,2.9-1.5,4.5-4.3,4.5l-0.7-0.1c0-2.9,0-5.7,0.1-8.5C399.9,33.1,401.3,33.5,401.3,37.2 M402.3,53
			c0.9-0.1,1.9-0.2,2.9-0.2c0.9,0,1.9,0.1,2.8,0.2c-2.3-3.5-4.7-7.1-6.7-10.7c3.1-0.8,4.9-2.7,4.9-5.8c0-1.9-0.8-3.2-2-4.1
			c-1.1-0.8-2.3-1.1-5.4-1.1c-2.1,0-3.5,0.2-4.6,0.2c-1,0-1.9-0.1-2.6-0.2c0.2,2.7,0.2,5.2,0.2,8.7v4.3c0,3.5-0.1,5.9-0.2,8.7
			c0.7-0.1,1.5-0.2,2.6-0.2c1,0,1.9,0.1,2.6,0.2c-0.2-2.8-0.2-5.2-0.2-8.7V43h0.3L402.3,53z M376.9,53.4c6.1,0,9.3-3,9.3-10.3
			c0-5.4,0.2-9.9,0.4-11.8c-0.5,0.1-1,0.2-1.6,0.2c-0.5,0-1.1-0.1-1.6-0.2c0.1,2.9,0.2,5.7,0.2,8.6c0,5.8-0.3,11.3-5.4,11.3
			c-4.1,0-6.3-1.3-6.3-8.9c0-3.6,0-6.9,0.4-11c-0.8,0.1-1.7,0.2-2.6,0.2c-0.8,0-1.7-0.1-2.6-0.2c0.1,1,0.1,3.1,0.1,6.5
			c0,2.3-0.1,4-0.1,7.3C367.3,51,371.5,53.4,376.9,53.4 M353.6,44.3c0,3.5-0.1,5.9-0.2,8.7c0.7-0.1,1.5-0.2,2.6-0.2
			c1,0,1.9,0.1,2.6,0.2c-0.2-2.8-0.3-5.2-0.3-8.7v-7.8c0-1.2,0-2.3,0.1-2.8c1.3,0,3.9,0.2,5.6,0.4c-0.1-0.5-0.2-0.9-0.2-1.4
			s0.1-0.9,0.2-1.4c-2.7,0.1-4.1,0.2-8,0.2s-5.3-0.1-8.2-0.2c0.1,0.5,0.2,0.9,0.2,1.4s-0.1,0.9-0.2,1.4c1.9-0.2,4.5-0.4,5.7-0.4
			c0.1,0.4,0.1,1.6,0.1,2.8L353.6,44.3L353.6,44.3z M334.3,44.7c0.9-2.5,1.9-5,2.9-7.5c1,2.4,1.9,4.9,2.8,7.5H334.3z M339.6,31.2
			c-0.4,0.1-0.8,0.2-1.2,0.2c-0.4,0-0.8-0.1-1.2-0.2c-2.7,7.2-7.4,18.3-8.9,21.8c0.6-0.1,1.1-0.2,1.6-0.2s1,0.1,1.5,0.2
			c0.6-2.2,1.3-4.3,2.1-6.4c1.1,0,2.2-0.1,3.3-0.1c1.3,0,2.7,0,4,0.1c0.8,2.1,1.5,4.3,2.2,6.4c0.9-0.1,1.8-0.2,2.7-0.2
			c0.9,0,1.8,0.1,2.8,0.2C346,47.9,342.3,38.3,339.6,31.2 M307.1,37.6c0,6.4-0.5,14.5-0.6,15.4c0.5-0.1,1-0.2,1.4-0.2
			c0.5,0,1,0.1,1.5,0.2c-0.1-1.2-0.2-2.9-0.2-7.9c0-2.4,0-5,0.1-7.3c4.8,5.1,9.4,10.2,13.7,15.3c0.4-0.1,0.8-0.2,1.2-0.2
			s0.8,0.1,1.3,0.2c0-8.4,0-12.5,0.5-21.6c-0.5,0.1-0.9,0.2-1.4,0.2s-0.9-0.1-1.4-0.2c0.2,1.4,0.2,9.9,0.2,14.9
			c-4.6-5-9.1-9.9-13.6-14.9c-0.5,0.1-0.9,0.2-1.4,0.2s-0.9-0.1-1.4-0.2C307,32.8,307.1,34.8,307.1,37.6 M280.8,44.7
			c0.9-2.5,1.9-5,2.9-7.5c1,2.4,1.9,4.9,2.8,7.5H280.8z M286.1,31.2c-0.4,0.1-0.8,0.2-1.2,0.2c-0.4,0-0.8-0.1-1.2-0.2
			c-2.7,7.2-7.4,18.3-8.9,21.8c0.6-0.1,1.1-0.2,1.6-0.2s1,0.1,1.5,0.2c0.6-2.2,1.3-4.3,2.1-6.4c1.1,0,2.2-0.1,3.3-0.1
			c1.3,0,2.7,0,4,0.1c0.8,2.1,1.5,4.3,2.2,6.4c0.9-0.1,1.8-0.2,2.7-0.2c0.9,0,1.8,0.1,2.8,0.2C292.4,47.9,288.8,38.3,286.1,31.2
			 M266.5,30.1c5.4-3.3,5.7-3.6,5.7-4.5c0-0.7-0.5-1.4-1.5-1.4c-0.9,0-1.2,0.2-6,5.9H266.5z M261.2,44.3c0,3.5-0.1,5.9-0.3,8.7
			c0.7-0.1,1.5-0.2,6.7-0.2c2.9,0,4.4,0.1,5.5,0.2c-0.1-0.4-0.1-0.7-0.1-1.3c0-0.7,0.1-1,0.1-1.4c-2.4,0.3-4.8,0.4-7.2,0.4
			c-0.1-1.3-0.1-2.6-0.1-3.9c0-1.4,0-2.7,0-4c2.4,0,4.7,0.1,7.1,0.3c-0.1-0.7-0.2-0.9-0.2-1.3c0-0.4,0-0.7,0.2-1.4
			c-2.4,0.1-4.4,0.2-7.1,0.3c0-2.3,0-4.6,0.2-6.8c0.9,0,4.7,0.2,7.1,0.4c-0.1-0.5-0.1-0.7-0.1-1.4c0-0.6,0.1-0.9,0.1-1.3
			c-0.8,0.1-3.5,0.2-6.6,0.2c-1.8,0-3.7-0.1-5.6-0.2c0.2,2.7,0.3,5.2,0.3,8.7V44.3z M245.8,44.3c0,3.5-0.1,5.9-0.3,8.7
			c0.7-0.1,1.5-0.2,6.6-0.2c2.9,0,4.4,0.1,5.5,0.2c-0.1-0.4-0.1-0.7-0.1-1.3c0-0.7,0.1-1,0.1-1.4c-2.4,0.3-4.8,0.4-7.2,0.4
			c0-1.6-0.1-4-0.1-6.3v-4.3c0-3.5,0.1-5.9,0.3-8.7c-0.7,0.1-1.5,0.2-2.6,0.2c-1,0-1.9-0.1-2.6-0.2c0.2,2.8,0.3,5.2,0.3,8.7v4.2
			H245.8z"/>
	</g>
</g>
<g>
	<g>
		<path class="st2" d="M153.1,54c-1.5,6.1-30.2,7.3-30.2,7.3v26.2h28.4c2,5.1-28.4,7.4-28.4,7.4v32.4h-11V54H153.1z"/>
	</g>
	<g>
		<path class="st2" d="M173.9,100.5c0,15.9,9.3,27.8,25.1,27.8c15.7,0,26.5-10.9,26.5-29.2c0-17.7-10.1-27.8-25.5-27.8
			C183.8,71.3,173.9,83.2,173.9,100.5L173.9,100.5z M185.3,99.9c0-7.9,1.5-22.7,14.7-22.7c10.6,0,14,10.3,14,22.1
			c0,10.7-2.6,22.8-14.5,22.8C186.3,122.1,185.3,107.5,185.3,99.9L185.3,99.9z"/>
	</g>
	<g>
		<path class="st2" d="M239.3,72.4l0.3,13.8c3.1-9.4,9.1-14.8,15.4-14.8c1,0,2.9,0.2,5.7,1l-1.5,9.7c-1.2-0.3-3.1-0.9-5.3-0.9
			c-4.4,0-9.1,2.4-11.6,9.3c-1.8,4.9-1.9,16.3-1.9,16.3c-0.7,20.8-10.5,20.5-10.5,20.5V72.4H239.3z"/>
	</g>
	<g>
		<path class="st2" d="M168.6,70.5V68c-0.7-20.8-10.5-20.5-10.5-20.5v27.2l0,0v52.5h10.6L168.6,70.5z"/>
	</g>
	<g>
		<path class="st2" d="M307.4,97.8c0-1.2,1.2-26.5-22.5-26.5c-13.2,0-25.2,10.8-25.2,28.4c0,15.2,9.1,28.7,26.1,28.7
			c8.5,0,14.1-2.9,19.1-5.8l-2.6-5.8c-3.3,1.8-8.7,4.8-14.6,4.8c-7.3,0-17.2-5.1-16.4-23.8C271.3,97.8,307.4,97.8,307.4,97.8z
			 M271.6,91.9c1-10.1,7.1-14.6,13.4-14.6c5.2,0,12.1,3.8,12.4,14.6H271.6z"/>
	</g>
	<g>
		<path class="st2" d="M341.2,80.2c-3.9-1.5-7.9-2.5-12-2.5c-2,0-9.1,0.5-9.1,6.1c0,3,1.9,4.8,8.2,8.6l3.8,2.3
			c11.6,7.1,14.2,11.6,14.2,17.5c0,10-8.6,16.1-19.7,16.1c-1.9,0-9.6-0.2-16.3-4.3l2.3-5.9c3.3,1.8,7.9,3.8,13.6,3.8
			c6.3,0,10.3-2.9,10.3-7.4c0-4.3-3.8-6.4-9.8-10.3l-2.7-1.7c-7.1-4.5-13.8-8.6-13.8-16.7c0-8.5,8.1-14.6,19-14.6
			c2.6,0,8.3,0.6,13.8,2.9L341.2,80.2z"/>
	</g>
	<g>
		<path class="st2" d="M378.4,80.2c-3.8-1.5-7.9-2.5-12-2.5c-2,0-9.1,0.5-9.1,6.1c0,3,1.9,4.8,8.2,8.6l3.8,2.3
			c11.6,7.1,14.2,11.6,14.2,17.5c0,10-8.5,16.1-19.6,16.1c-1.9,0-9.6-0.2-16.3-4.3l2.3-5.9c3.3,1.8,7.9,3.8,13.6,3.8
			c6.3,0,10.3-2.9,10.3-7.4c0-4.3-3.8-6.4-9.8-10.3l-2.7-1.7c-7-4.5-13.7-8.6-13.7-16.7c0-8.5,8.1-14.6,19-14.6
			c2.6,0,8.3,0.6,13.8,2.9L378.4,80.2z"/>
	</g>
	<g>
		<path class="st2" d="M432.3,127.2c-1.2-5.4-1.6-9.5-1.6-20.1V90.3c0-4.7-0.2-7.7-1.8-10.7c-3.1-5.7-11.1-8.3-19-8.3
			c-6.8,0-13.6,1.7-19.6,5.3l2,6.1c4.7-2.8,10.1-4.7,15.5-4.7c6.3,0,12.6,2.6,12.6,10.8v1.7c-15.3,5.6-33.8,9.4-33.8,23.2
			c0,7.7,6.1,14.1,16.6,14.7c12.7,0.7,18-10.9,18-10.9C421.1,124.9,432.3,127.2,432.3,127.2 M397.4,112.5c0-8.6,9.7-11.1,23-16.1
			v2.9c0,6-0.3,11.2-2.8,15.6c-2.2,3.8-6.1,6.4-10.8,6.4c-4.7,0-9.5-2.9-9.5-8.7L397.4,112.5L397.4,112.5z"/>
	</g>
	<g>
		<path class="st2" d="M446.2,72.4l0.3,10.3c4-9.3,12.8-11.4,18.2-11.4c7,0,13.3,3.3,16.1,8.6c1.9,3.4,1.9,7.6,1.9,12.3v35.1h-10.5
			V93.6c0-3.9,0.3-14.8-11.2-14.8c-14.6,0-13.8,19.5-13.8,23.5v24.9h-10.5V72.4H446.2z"/>
	</g>
	<g>
		<path class="st2" d="M527.2,80.8c-2.4-1-6.7-2.8-11.7-2.8c-7.9,0-16.6,5.6-16.6,21.9c0,14.7,7.5,21.9,16,21.9
			c5.5,0,9.8-2.4,12.3-3.6l2.3,6c-2.6,1.4-8.1,4.3-16.4,4.3c-15.8,0-25.7-12.3-25.7-28.4c0-18.8,12.6-28.7,27-28.7
			c4.1,0,9.5,1,14.8,3.4L527.2,80.8z"/>
	</g>
	<g>
		<path class="st2" d="M574.5,97.8c0-1.2,1.2-26.5-22.6-26.5c-13.1,0-25.2,10.8-25.2,28.4c0,15.2,9.1,28.7,26.1,28.7
			c8.5,0,14.1-2.9,19.1-5.8l-2.6-5.8c-3.3,1.8-8.7,4.8-14.6,4.8c-7.2,0-17.2-5.1-16.4-23.8C538.3,97.8,574.5,97.8,574.5,97.8z
			 M538.8,91.9c1-10.1,7.1-14.6,13.4-14.6c5.2,0,12.1,3.8,12.4,14.6H538.8z"/>
	</g>
</g>
<path class="st1" d="M302.3,164.5c3.6,5.2,7.4,8.9,11.4,11.6c0.3-2.4,1-6.6,2.9-8.8c1.9-2.5,4.9-3.3,6.5-1.9
	c1.7,1.5,1.5,4.7-0.4,7.2c0,0-0.2,0.3-0.6,0.7l-0.3,0.3c-1,1-3.1,2.6-6.2,3.7c3.7,2.1,7.4,3.2,11.1,3.8c-0.1-2.3,0.1-6.9,1.8-9.6
	c1.6-2.8,4.4-4,6.2-2.7c1.8,1.2,2,4.5,0.4,7.2c0,0-0.2,0.3-0.5,0.8l-0.2,0.3c-0.9,1.1-2.5,2.8-5.1,4.2c4.6,0.3,9-0.3,13.1-1.4
	c-1-2.1-2.9-6.3-2.5-9.6c0.2-3.3,2.1-5.7,4.3-5.4c2.2,0.2,3.7,3.1,3.5,6.4c0,0,0,0.4-0.1,1l-0.1,0.4c-0.3,1.5-1.1,4-3,6.7
	c2.6-0.8,5.1-1.8,7.3-2.8c-0.8-1.8-2.7-6.9-2-10.4c0.5-3.2,2.6-5.5,4.7-5s3.4,3.4,2.9,6.7c0,0,0,0.3-0.2,0.9l-0.1,0.4
	c-0.5,1.5-1.5,4-3.7,6.6c2.1-1,3.8-2,5.2-2.9c0.4-1.4,2.2-7,5.2-9.2c2.4-1.9,5.5-2,6.8-0.2s0.5,4.9-2,6.8c0,0-0.3,0.2-0.7,0.5
	l-0.4,0.2c-1.5,0.9-4.4,2.1-8.6,2.2c-1.6,1.3-3.1,2.4-4.7,3.4c2.3-0.5,6-0.9,8.6,0.2c3,1.1,4.8,3.8,4.2,5.9
	c-0.7,2.1-3.6,2.9-6.6,1.8c0,0-0.3-0.1-0.8-0.4l-0.4-0.2c-1.5-0.8-4.2-2.7-6.7-6.3c-2.1,1.3-4.2,2.3-6.2,3.1c2.2,0.9,5.4,2.4,7,4.7
	c2.1,2.6,2.4,5.8,0.8,7.2s-4.6,0.5-6.7-2.1c0,0-0.2-0.3-0.6-0.8l-0.2-0.4c-0.8-1.4-2.1-4.1-2.7-7.8c-3.8,1.3-7.4,1.9-10.9,2.1
	c2.1,1.2,5.3,3.4,6.7,6c1.7,2.9,1.5,6.1-0.3,7.2c-1.8,1.1-4.6-0.3-6.3-3.1c0,0-0.2-0.3-0.4-0.9l-0.2-0.4c-0.7-1.6-1.6-4.7-1.5-8.8
	c-3.5,0-6.8-0.5-9.8-1.4c1.9,1.4,5,4,6.1,6.8c1.4,3,0.9,6.2-1,7.1c-1.9,0.9-4.6-0.8-6-3.9c0,0-0.1-0.3-0.3-0.9l-0.1-0.4
	c-0.5-1.7-1.2-5-0.5-9.3c-3-0.9-5.7-2.1-8.1-3.5c1.3,2.2,2.9,5.5,2.9,8.4c0.2,3.3-1.5,6-3.6,6s-4-2.7-4.1-6v-1v-0.4
	c0.2-1.7,0.8-4.7,2.8-8.1c-7-4.2-11.2-8.8-11.2-8.8c-0.8-0.9-0.6-2.5,0.5-3.6C299.9,163.7,301.5,163.6,302.3,164.5"/>
</svg>
