<?xml version="1.0" encoding="utf-8"?>
<!-- Generator: Adobe Illustrator 21.1.0, SVG Export Plug-In . SVG Version: 6.00 Build 0)  -->
<svg version="1.1" id="Calque_1" xmlns="http://www.w3.org/2000/svg" xmlns:xlink="http://www.w3.org/1999/xlink" x="0px" y="0px"
	 viewBox="0 0 631 578" style="enable-background:new 0 0 631 578;" xml:space="preserve">
<style type="text/css">
	.st0{fill:#FFFFFF;}
	.st1{fill:#F9E0A4;}
	.st2{fill:#007040;}
</style>
<g id="Calque_1_1_">
</g>
<g id="Logo">
	<ellipse id="Fond" class="st0" cx="317.2" cy="287.2" rx="307.6" ry="279.8"/>
	<path id="Feuille" class="st1" d="M225.4,392.5c9.8,14.3,20.3,24.5,31.3,31.7c0.8-6.5,2.7-18,8-24.3c5.3-6.8,13.3-9.1,18-5.1
		c4.7,4.1,4.1,12.9-1.1,19.8c0,0-0.6,0.7-1.7,1.9l-0.8,0.8c-2.9,2.8-8.5,7.2-17,10.1c10.1,5.7,20.3,8.9,30.5,10.4
		c-0.1-6.3,0.2-18.9,4.9-26.3c4.4-7.6,12-10.9,17.1-7.5s5.6,12.3,1.2,19.8c0,0-0.5,0.8-1.4,2.1l-0.7,0.9c-2.4,2.9-6.9,7.7-14.1,11.6
		c12.5,0.8,24.7-0.9,35.9-3.9c-2.8-5.7-7.9-17.4-6.9-26.4c0.6-9,5.9-15.7,11.7-14.9c5.9,0.7,10.1,8.5,9.5,17.5c0,0-0.1,1-0.4,2.6
		l-0.2,1.1c-0.9,4.1-3,11-8.1,18.5c7.2-2.3,13.9-5,19.9-7.8c-2.1-4.9-7.3-18.8-5.4-28.6c1.4-8.9,7.2-15,13-13.8
		c5.8,1.3,9.4,9.5,8.1,18.3c0,0-0.1,0.9-0.6,2.5l-0.3,1.1c-1.3,4.1-4.1,11-10.2,18.2c5.6-2.8,10.4-5.6,14.3-8
		c1.2-4,6.1-19.1,14.2-25.1c6.7-5.3,15.1-5.6,18.8-0.6c3.7,5,1.3,13.4-5.4,18.8c0,0-0.7,0.6-2.1,1.4l-1,0.6
		c-4,2.3-12.1,5.8-23.5,5.9c-4.3,3.4-8.6,6.6-12.9,9.4c6.2-1.3,16.4-2.5,23.6,0.6c8.2,3.1,13.3,10.4,11.5,16.2
		c-1.8,5.9-9.9,8.1-18,4.9c0,0-0.9-0.3-2.3-1.1l-1-0.6c-4.2-2.3-11.6-7.5-18.3-17.4c-5.8,3.5-11.4,6.3-17,8.6
		c6.1,2.4,14.7,6.7,19.2,12.8c5.7,7,6.7,15.9,2.3,19.9c-4.4,3.8-12.6,1.3-18.3-5.7c0,0-0.6-0.8-1.5-2.2l-0.6-1
		c-2.3-3.8-5.9-11.2-7.4-21.5c-10.3,3.6-20.3,5.3-29.8,5.8c5.7,3.3,14.4,9.3,18.3,16.4c4.6,7.9,4.3,16.7-0.7,19.9
		c-5,3.1-12.8-0.7-17.3-8.5c0,0-0.5-0.8-1.1-2.4l-0.5-1.1c-1.8-4.4-4.5-12.8-4.1-24.1c-9.5,0-18.5-1.5-26.9-3.7
		c5.3,3.9,13.6,11,16.7,18.7c3.7,8.3,2.4,17.1-2.8,19.5c-5.3,2.5-12.7-2.2-16.4-10.6c0,0-0.4-0.9-0.9-2.5l-0.3-1.1
		c-1.4-4.7-3.2-13.8-1.2-25.4c-8.1-2.6-15.6-5.9-22.3-9.5c3.5,5.9,8.1,15.2,8.1,23c0.4,9-4.1,16.4-10,16.4
		c-5.8,0-10.9-7.3-11.3-16.4l0.1-2.6l0.1-1.2c0.5-4.6,2.1-13,7.6-22.2c-19.3-11.4-30.8-24.1-30.8-24.1c-2.2-2.5-1.7-6.9,1.3-9.9
		C218.9,390.3,223.1,390,225.4,392.5"/>
	<g>
		<path class="st2" d="M157.8,362.5H152l3.8-24.1h-0.1c-3.4,3.7-8,5.8-12.6,5.8c-10.3,0-15.2-8.2-13.7-18
			c1.5-9.6,9.2-18.2,19.3-18.2c4.7,0,8.6,2,10.9,5.8h0.1l0.7-4.9h5.8L157.8,362.5z M135.4,325.7c-1.1,6.7,1.9,13.1,9.2,13.1
			c7.5,0,12.4-6.1,13.5-13s-2.3-12.4-9.6-12.4C141.7,313.4,136.4,319.3,135.4,325.7z"/>
		<path class="st2" d="M179.5,328c-0.9,5.8-1,10.7,6.1,10.7s8.5-5,9.4-10.7l3-19.1h5.8l-3.1,19.8c-1.5,9.1-5.9,15.5-16.1,15.5
			s-12.6-6.4-11.1-15.5l3.1-19.8h5.8L179.5,328z"/>
		<path class="st2" d="M228.7,289.2l-11.2,18.6l-3.7-1.5l9.9-19.1L228.7,289.2z"/>
		<path class="st2" d="M237.1,343.2h-5.8l5.4-34.3h5.8L237.1,343.2z M245.8,296c-0.4,2.3-2.6,4.2-4.8,4.2s-3.9-1.8-3.5-4.2
			c0.4-2.3,2.6-4.2,4.9-4.2C244.6,291.8,246.1,293.7,245.8,296z"/>
		<path class="st2" d="M255,343.2h-5.8l9.6-60.2h5.8L255,343.2z"/>
		<path class="st2" d="M299,312.6h0.1c2.3-2.8,5.5-4.7,9.1-4.7c4,0,7.3,2.1,8.5,5.7c2.6-3.8,7.1-5.7,11.2-5.7
			c8.8,0,9.8,7.2,8.6,14.4l-3.3,20.9h-5.8l3.1-19.9c0.7-4.5,1.3-9.9-4.7-9.9c-6.7,0-8.5,6.5-9.3,11.7l-2.8,18.2h-5.8l3.1-19.5
			c0.7-4.2,1.2-10.4-4.5-10.4c-6.9,0-8.7,6.9-9.6,12.1l-2.8,17.7h-5.8l5.4-34.3h5.8L299,312.6z"/>
		<path class="st2" d="M349.9,327.3c-0.9,6.4,2.8,11.5,9.4,11.5c5,0,8.6-3,11.5-7.1l4.5,2.8c-4.2,6.1-10.4,9.6-17.4,9.6
			c-10.2,0-15.5-7.8-14-17.7c1.6-10.1,8.9-18.5,19.6-18.5c11,0,15.4,9.1,13.2,19.3h-26.8V327.3z M371.4,322.3c0-5-3.5-9-8.6-9
			c-5,0-10.4,4-11.9,9H371.4z"/>
		<path class="st2" d="M411.1,343.2h-5.8l4.6-28.9h-3.2l0.8-5.4h3.2l2.2-13.7c0.4-2.8,1-6.4,2.9-8.9c2.4-3.1,6.1-4.3,9.6-4.3
			c1.4,0,2.7,0.3,4,0.7l-0.9,5.9c-1.2-0.4-2.3-0.8-3.8-0.8c-4.7,0-5.3,3.4-6.2,9.4l-1.9,11.6h8.7l-0.8,5.4h-8.7L411.1,343.2z"/>
		<path class="st2" d="M456.1,343.2h-5.8l0.7-4.7h-0.1c-3.6,3.8-7.9,5.7-12.7,5.7c-10.1,0-15.1-8.5-13.6-18
			c1.5-9.8,9.1-18.2,19.4-18.2c4.7,0,8.5,2.2,10.8,5.8h0.1l0.7-4.9h5.8L456.1,343.2z M430.6,325.7c-1.1,6.7,1.9,13.1,9.2,13.1
			c7.5,0,12.4-6.1,13.5-13s-2.3-12.4-9.6-12.4C436.9,313.4,431.6,319.3,430.6,325.7z"/>
		<path class="st2" d="M474.7,328c-0.9,5.8-1,10.7,6.1,10.7s8.5-5,9.4-10.7l3-19.1h5.8l-3.1,19.8c-1.5,9.1-5.9,15.5-16.1,15.5
			c-10.1,0-12.6-6.4-11.1-15.5l3.1-19.8h5.8L474.7,328z"/>
		<path class="st2" d="M510.4,343.2h-5.8l4.6-28.9h-3.6l0.8-5.4h3.6l2-12.3h5.8l-2,12.3h6.1l-0.8,5.4H515L510.4,343.2z"/>
	</g>
	<g>
		<path class="st2" d="M56.7,204.4v54.9h18.8v9.1H47v-63.9H56.7z"/>
		<path class="st2" d="M119.9,213.5H94.3v15.4h24.9v9.1H94.3v21.4h25.6v9.1H84.6v-63.9h35.3V213.5z"/>
		<path class="st2" d="M168.7,213.9l-7.8,4.6c-1.5-2.5-2.9-4.2-4.2-5c-1.4-0.9-3.2-1.3-5.3-1.3c-2.7,0-4.9,0.8-6.7,2.3
			c-1.8,1.5-2.7,3.4-2.7,5.6c0,3.1,2.3,5.6,7,7.5l6.4,2.6c5.2,2.1,9,4.7,11.4,7.7c2.4,3,3.6,6.7,3.6,11.1c0,5.9-2,10.7-5.9,14.6
			c-3.9,3.9-8.8,5.8-14.7,5.8c-5.5,0-10.1-1.6-13.7-4.9c-3.6-3.3-5.8-7.9-6.7-13.9l9.8-2.2c0.4,3.8,1.2,6.3,2.3,7.8
			c2,2.8,4.9,4.1,8.7,4.1c3,0,5.5-1,7.5-3c2-2,3-4.6,3-7.7c0-1.2-0.2-2.4-0.5-3.4c-0.3-1-0.9-2-1.6-2.9c-0.7-0.9-1.7-1.7-2.8-2.4
			c-1.2-0.8-2.5-1.5-4.1-2.2l-6.2-2.6c-8.7-3.7-13.1-9.1-13.1-16.2c0-4.8,1.8-8.8,5.5-12c3.7-3.3,8.2-4.9,13.7-4.9
			C158.8,203.1,164.6,206.7,168.7,213.9z"/>
		<path class="st2" d="M230.5,231.2v37.1h-13.8V177h15.6c7.6,0,13.4,0.5,17.3,1.6c3.9,1.1,7.4,3.1,10.4,6c5.2,5.1,7.9,11.6,7.9,19.4
			c0,8.4-2.8,15-8.4,19.9c-5.6,4.9-13.2,7.3-22.7,7.3H230.5z M230.5,218.4h5.1c12.7,0,19-4.9,19-14.6c0-9.4-6.5-14.1-19.6-14.1h-4.6
			V218.4z"/>
		<path class="st2" d="M283.4,204.4v54.9h18.8v9.1h-28.4v-63.9H283.4z"/>
		<path class="st2" d="M347.5,252.8h-27.4l-7.1,15.5h-10.4l31.6-67.9l30.5,67.9h-10.6L347.5,252.8z M343.6,243.7l-9.5-21.7
			l-9.9,21.7H343.6z"/>
		<path class="st2" d="M374.8,268.3V200l46.6,48.8v-44.4h9.6v67.8l-46.6-48.6v44.8H374.8z"/>
		<path class="st2" d="M473,213.5v54.9h-9.6v-54.9h-14.7v-9.1h39v9.1H473z"/>
		<path class="st2" d="M532.5,213.5h-25.6v15.4h24.9v9.1h-24.9v21.4h25.6v9.1h-35.3v-63.9h35.3V213.5z"/>
		<path class="st2" d="M585.3,213.9l-7.8,4.6c-1.5-2.5-2.9-4.2-4.2-5c-1.4-0.9-3.2-1.3-5.3-1.3c-2.7,0-4.9,0.8-6.7,2.3
			c-1.8,1.5-2.7,3.4-2.7,5.6c0,3.1,2.3,5.6,7,7.5l6.4,2.6c5.2,2.1,9,4.7,11.4,7.7c2.4,3,3.6,6.7,3.6,11.1c0,5.9-2,10.7-5.9,14.6
			c-3.9,3.9-8.8,5.8-14.7,5.8c-5.5,0-10.1-1.6-13.7-4.9c-3.6-3.3-5.8-7.9-6.7-13.9l9.8-2.2c0.4,3.8,1.2,6.3,2.3,7.8
			c2,2.8,4.9,4.1,8.7,4.1c3,0,5.5-1,7.5-3c2-2,3-4.6,3-7.7c0-1.2-0.2-2.4-0.5-3.4c-0.3-1-0.9-2-1.6-2.9c-0.7-0.9-1.7-1.7-2.8-2.4
			c-1.2-0.8-2.5-1.5-4.1-2.2l-6.2-2.6c-8.7-3.7-13.1-9.1-13.1-16.2c0-4.8,1.8-8.8,5.5-12c3.7-3.3,8.2-4.9,13.7-4.9
			C575.4,203.1,581.2,206.7,585.3,213.9z"/>
	</g>
</g>
</svg>
