<?xml version="1.0" standalone="no"?>
<!DOCTYPE svg PUBLIC "-//W3C//DTD SVG 20010904//EN"
 "http://www.w3.org/TR/2001/REC-SVG-20010904/DTD/svg10.dtd">
<svg version="1.0" xmlns="http://www.w3.org/2000/svg"
 width="512.000000pt" height="512.000000pt" viewBox="0 0 512.000000 512.000000"
 preserveAspectRatio="xMidYMid meet">
<metadata>
Created by potrace 1.11, written by Peter Selinger 2001-2013
</metadata>
<g transform="translate(0.000000,512.000000) scale(0.100000,-0.100000)"
fill="#000000" stroke="none">
<path d="M2168 4895 c-1 -1 -34 -6 -73 -9 -86 -9 -191 -27 -350 -61 -41 -9
-232 -74 -305 -103 -99 -40 -285 -133 -333 -166 -21 -14 -40 -26 -43 -26 -15
0 -206 -141 -288 -213 -423 -372 -690 -869 -753 -1402 -10 -88 -10 -388 0
-478 28 -251 99 -491 214 -721 106 -213 124 -231 268 -275 64 -19 87 -20 260
-15 221 6 326 5 375 -1 19 -3 59 -8 89 -11 30 -3 58 -7 61 -9 4 -2 20 -6 37
-9 52 -10 183 -55 244 -86 182 -90 319 -224 424 -413 20 -37 39 -67 40 -65 2
2 5 32 9 68 12 140 57 331 127 547 54 167 141 364 254 571 100 188 114 212
163 287 6 11 15 27 19 35 14 35 212 327 233 345 16 14 22 15 18 5 -4 -8 -27
-64 -53 -125 -104 -245 -308 -790 -320 -855 -1 -3 -13 -43 -27 -90 -24 -77
-85 -306 -94 -355 -2 -11 -6 -31 -9 -45 -3 -14 -8 -36 -11 -50 -8 -39 -14 -70
-24 -130 -5 -30 -11 -67 -14 -83 -3 -15 -3 -27 -2 -27 2 0 25 28 52 62 81 103
204 222 319 308 198 149 399 250 740 370 79 28 122 45 200 80 22 10 83 37 135
60 157 69 268 129 401 216 70 46 133 89 140 96 8 7 37 31 64 52 67 52 215 206
215 223 0 8 5 11 10 8 6 -3 10 -2 10 4 0 5 6 16 13 23 8 7 34 48 59 91 l46 78
-3 115 c-4 156 -13 232 -51 427 -20 105 -95 319 -157 447 -55 115 -205 362
-236 390 -4 3 -32 37 -63 75 -123 153 -332 337 -523 461 -91 59 -355 199 -355
187 0 -3 -6 -1 -12 4 -29 23 -306 114 -392 129 -17 2 -47 9 -66 14 -19 5 -69
14 -110 20 -41 6 -86 14 -100 16 -29 6 -466 14 -472 9z m-207 -2262 c13 -16
12 -17 -3 -4 -10 7 -18 15 -18 17 0 8 8 3 21 -13z"/>
<path d="M5003 2859 c0 -8 -9 -44 -21 -81 -98 -301 -350 -613 -670 -827 -225
-151 -426 -244 -786 -362 -114 -38 -247 -85 -295 -105 -562 -232 -899 -601
-985 -1081 -4 -25 -2 -33 9 -33 22 0 201 58 265 86 76 33 269 134 350 183 19
11 42 24 50 28 29 13 266 156 310 187 73 51 75 52 50 8 -35 -63 -149 -200
-223 -269 -67 -62 -196 -158 -277 -205 -136 -78 -273 -150 -342 -178 -32 -13
-58 -27 -58 -30 0 -4 42 -21 93 -38 257 -86 491 -127 727 -127 157 0 196 4
345 38 681 155 1175 648 1423 1419 36 111 82 296 97 388 3 19 7 46 10 60 30
164 44 524 24 658 -14 98 -18 115 -39 185 -19 63 -57 126 -57 96z"/>
<path d="M15 1591 c-9 -29 15 -136 79 -346 2 -5 8 -23 14 -38 7 -16 12 -32 12
-36 0 -5 20 -53 44 -107 131 -294 310 -516 545 -674 145 -97 401 -196 556
-215 22 -3 51 -8 65 -11 51 -13 375 -12 452 0 43 7 80 15 83 18 8 8 -76 108
-166 197 -83 83 -268 234 -373 304 -89 60 -64 62 91 8 198 -69 377 -177 505
-305 l58 -58 11 29 c21 52 23 186 4 260 -56 215 -245 461 -439 572 -252 144
-514 181 -935 132 -238 -28 -444 59 -558 237 -18 28 -35 52 -38 52 -2 0 -6 -8
-10 -19z"/>
</g>
</svg>
